<?xml version="1.0" ?><!DOCTYPE svg  PUBLIC '-//W3C//DTD SVG 1.1//EN'  'http://www.w3.org/Graphics/SVG/1.1/DTD/svg11.dtd'><svg height="32px" id="Layer_1" style="enable-background:new 0 0 32 32;" version="1.1" viewBox="0 0 32 32" width="32px" xml:space="preserve" xmlns="http://www.w3.org/2000/svg" xmlns:xlink="http://www.w3.org/1999/xlink"><g transform="translate(0 96)"><path d="M27.666-86.615v0.002C27.877-87.058,28-87.523,28-88v-2c0-3.313-5.373-6-12-6S4-93.312,4-90   c0-0.164,0.022-0.324,0.05-0.484C1.57-89.386,0-87.785,0-86v2c0,1.855,1.688,3.514,4.334,4.613l0,0C4.123-78.941,4-78.477,4-78v2   c0,0.703,0.254,1.373,0.699,2C4.254-73.373,4-72.703,4-72v2c0,3.313,5.373,6,12,6s12-2.688,12-6v-2   c0-0.715-0.264-1.396-0.721-2.031c-0.004,0.004-0.009,0.01-0.013,0.014c0.336-0.477,0.601-0.973,0.685-1.498   c2.479-1.1,4.049-2.699,4.049-4.483v-2C32-83.854,30.312-85.515,27.666-86.615L27.666-86.615z M16-95c6.481,0,11,2.635,11,5   c0,2.363-4.519,5-11,5S5-87.637,5-90C5-92.365,9.517-95,16-95z M1-86c0-1.168,1.106-2.396,3-3.346V-88c0,3.313,5.373,6,12,6   c0.99,0,1.947-0.066,2.867-0.18C17.033-81.475,14.703-81,12-81C5.517-81,1-83.637,1-86z M27-72c0,2.363-4.519,5-11,5S5-69.637,5-72   c0-0.393,0.168-0.791,0.404-1.186c-0.002-0.002-0.007-0.006-0.009-0.011C7.41-71.297,11.402-70.001,16-70.001   c4.604,0,8.576-1.306,10.586-3.209c-0.002,0.002-0.002,0.002-0.004,0.004C26.828-72.807,27-72.4,27-72L27-72z M22.871-74.182   c-1.836,0.709-4.166,1.181-6.871,1.181c-6.481,0-11-2.638-11-5c0-0.341,0.117-0.685,0.295-1.022c0.98,0.329,2.064,0.59,3.224,0.764   C10.011-75.795,14.584-74,20-74c0.994,0,1.955-0.066,2.879-0.182c-0.002,0-0.004,0.002-0.008,0.002V-74.182z M20-77   c-2.565,0-4.805-0.422-6.598-1.068c5.639-0.332,10.092-2.596,10.549-5.447c1.36-0.604,2.451-1.355,3.151-2.211   c-0.002,0-0.002,0-0.002,0c2.422,0.984,3.896,2.391,3.896,3.727c0,2.363-4.518,5-11,5L20-77z M18.138-88.543   c0-0.211-0.168-0.373-0.504-0.481c-0.336-0.109-1.084-0.25-2.242-0.418c-1.041-0.146-1.855-0.293-2.441-0.438   c-0.586-0.145-1.063-0.348-1.428-0.606c-0.365-0.262-0.549-0.566-0.549-0.91c0-0.453,0.328-0.863,0.979-1.227   c0.651-0.361,1.681-0.582,3.082-0.664v-0.715h1.896v0.715c2.117,0.106,3.487,0.594,4.11,1.473l-2.608,0.438   c-0.51-0.602-1.295-0.902-2.361-0.902c-0.535,0-0.965,0.066-1.287,0.203c-0.324,0.133-0.486,0.297-0.486,0.488   c0,0.195,0.156,0.344,0.471,0.449c0.312,0.104,0.979,0.23,2.004,0.387c1.125,0.168,2.009,0.326,2.646,0.477   c0.644,0.148,1.15,0.356,1.533,0.619c0.381,0.264,0.571,0.572,0.571,0.924c0,0.543-0.395,0.992-1.182,1.353   c-0.787,0.361-1.924,0.574-3.41,0.639v0.926h-1.895v-0.922c-2.479-0.104-4.012-0.695-4.604-1.771l2.93-0.313   c0.27,0.676,1.17,1.014,2.695,1.014c0.713,0,1.237-0.072,1.574-0.217c0.336-0.145,0.504-0.318,0.504-0.523L18.138-88.543z"/></g></svg>